<svg xmlns="http://www.w3.org/2000/svg" width="512" height="512" version="1.1">
 <defs>
  <filter id="filter2067" x="-.019" y="-.027" width="1.1" height="1.1" color-interpolation-filters="sRGB">
   <feFlood flood-color="rgb(0,0,0)" flood-opacity=".5" result="flood"/>
   <feComposite in="flood" in2="SourceGraphic" operator="in" result="composite1"/>
   <feGaussianBlur in="composite1" result="blur" stdDeviation="3"/>
   <feOffset dx="6" dy="6" result="offset"/>
   <feComposite in="SourceGraphic" in2="offset" result="composite2"/>
  </filter>
 </defs>
 <g>
  <circle cx="256" cy="256" r="240" fill="#4ca341" stop-color="#000"/>
  <path d="m256 39v434c-120-0.21-217-97-217-217 0-41 11-78 30-111 38-63 107-106 186-106" fill="#404040"/>
  <path d="m256 62v388a194 194 0 0 0 194-194 194 194 0 0 0-194-194z" opacity=".2" stop-color="#000"/>
  <path transform="matrix(.93 0 0 .93 440 187)" d="m-384 38c6.1 18 49 162 172 165 61 0 168-39 213-89-6.7-8.7-40-28-47-36-49 52-98 91-166 91-67 0.26-108-66-122-126 0 0 31-67 110-71 70-4.9 117 68 117 68s-49 73-100 73c-33-1.2-55-27-60-60 0 0 14-26 40-22 26 4 32 12 49 46l35-32c-20-30-47-47-84-42-51 7-74 43-74 43 6.6 37 31 93 93 95 74 0 144-103 144-103s-61-102-154-99c-89 2.9-166 99-166 99z" fill="#fff" filter="url(#filter2067)" />
  <path d="m256 62v388a194 194 0 0 1-194-194 194 194 0 0 1 194-194z" opacity=".55" stop-color="#000"/>
 </g>
</svg>
